<?xml version="1.0" standalone="no"?><!DOCTYPE svg PUBLIC "-//W3C//DTD SVG 1.1//EN" "http://www.w3.org/Graphics/SVG/1.1/DTD/svg11.dtd">
<svg class="icon" height="14" viewBox="0 0 1024 1024" version="1.1" 
    xmlns="http://www.w3.org/2000/svg">
    <path d="M952.576 913.088H216.128v-108.928H293.12a39.68 39.68 0 0 0 39.488-39.488 38.528 38.528 0 0 0-39.488-39.424H216.128v-45.12H293.12a39.68 39.68 0 0 0 39.488-39.424 38.528 38.528 0 0 0-39.488-39.488H216.128V556.16H293.12a39.68 39.68 0 0 0 39.488-39.488 38.528 38.528 0 0 0-39.488-39.424H216.128v-45.12H293.12a39.68 39.68 0 0 0 39.488-39.424 38.528 38.528 0 0 0-39.488-39.424H216.128v-45.12H293.12a39.68 39.68 0 0 0 39.488-39.424 38.528 38.528 0 0 0-39.488-39.488H216.128v-118.4h65.728a39.68 39.68 0 0 0 39.488-39.424A38.528 38.528 0 0 0 281.856 32H71.424a39.68 39.68 0 0 0-39.424 39.424 39.68 39.68 0 0 0 39.424 39.488h65.792v802.176H71.424a39.68 39.68 0 0 0-39.424 39.488c0 22.528 16.896 39.424 39.424 39.424h881.152a39.68 39.68 0 0 0 39.424-39.424 39.68 39.68 0 0 0-39.424-39.488z m-108.8-677.76l-49.024 93.696-46.976-96 96 2.304zM759.04 92.096s-16.896 60.16-16.896 171.008c0 110.784 16.896 170.88 16.896 170.88l-296.832-170.88 296.832-171.008z" />
</svg>